<svg id="Layer_1" data-name="Layer 1" xmlns="http://www.w3.org/2000/svg" viewBox="0 0 92.49 20.5"><defs><style>.cls-4{fill:#5435d1;}.cls-5{fill:#121212;}</style></defs><title>logo</title><path class="cls-4" d="M5.86,2.89A2.72,2.72,0,0,1,5,5a3,3,0,0,1-2.05.77A3,3,0,0,1,.87,5,2.72,2.72,0,0,1,0,2.89,2.71,2.71,0,0,1,.87.77,3,3,0,0,1,2.93,0,3,3,0,0,1,5,.77,2.72,2.72,0,0,1,5.86,2.89Z"/><rect class="cls-5" x="1.15" y="7.54" width="3.58" height="12.62"/><path class="cls-5" d="M8.29,8a20.88,20.88,0,0,1,2.35-.49,19.61,19.61,0,0,1,3-.23,7.33,7.33,0,0,1,2.67.42A4,4,0,0,1,18,8.86a4.6,4.6,0,0,1,.89,1.83A9.43,9.43,0,0,1,19.19,13v7.13H15.61v-6.7A4.76,4.76,0,0,0,15.15,11a1.85,1.85,0,0,0-1.7-.72,7.88,7.88,0,0,0-.82,0c-.29,0-.54.05-.77.08v9.75H8.29Z"/><path class="cls-5" d="M22,13.85a7.36,7.36,0,0,1,.44-2.58,6,6,0,0,1,3.32-3.54,6.8,6.8,0,0,1,2.74-.52,8.86,8.86,0,0,1,1.85.18A9.33,9.33,0,0,1,32,7.9l-.74,2.86a9.71,9.71,0,0,0-1.11-.34,6.13,6.13,0,0,0-1.34-.14,2.85,2.85,0,0,0-2.37,1,4.06,4.06,0,0,0-.78,2.59,4.17,4.17,0,0,0,.74,2.64,3,3,0,0,0,2.55.94,8.71,8.71,0,0,0,1.39-.12,6.1,6.1,0,0,0,1.37-.38l.51,2.92a8.4,8.4,0,0,1-1.56.46,10.27,10.27,0,0,1-2.07.19,7.82,7.82,0,0,1-3-.51,5.72,5.72,0,0,1-2.06-1.41,5.54,5.54,0,0,1-1.17-2.1A8.85,8.85,0,0,1,22,13.85Z"/><path class="cls-5" d="M46.33,13.83a8.12,8.12,0,0,1-.44,2.72,5.88,5.88,0,0,1-1.24,2.12,5.73,5.73,0,0,1-2,1.35,7,7,0,0,1-5.09,0,5.59,5.59,0,0,1-2-1.35,6.26,6.26,0,0,1-1.28-2.12,7.88,7.88,0,0,1-.45-2.72,7.34,7.34,0,0,1,.47-2.71A6.15,6.15,0,0,1,35.68,9a5.74,5.74,0,0,1,2-1.34,6.72,6.72,0,0,1,5,0A5.7,5.7,0,0,1,44.6,9a6.1,6.1,0,0,1,1.27,2.09A7.78,7.78,0,0,1,46.33,13.83Zm-3.65,0a4.49,4.49,0,0,0-.66-2.6,2.15,2.15,0,0,0-1.89-1,2.17,2.17,0,0,0-1.89,1,4.41,4.41,0,0,0-.67,2.6,4.56,4.56,0,0,0,.67,2.63,2.16,2.16,0,0,0,1.89,1,2.14,2.14,0,0,0,1.89-1A4.63,4.63,0,0,0,42.68,13.83Z"/><path class="cls-5" d="M56.15,13.47A5,5,0,0,0,55.71,11a1.66,1.66,0,0,0-1.53-.72,5.53,5.53,0,0,0-.69,0l-.7.08v9.75H49.22V8l1.06-.25c.41-.09.84-.17,1.3-.24s.92-.13,1.4-.17,1-.06,1.42-.06a6,6,0,0,1,2.22.35,4.8,4.8,0,0,1,1.4.83,6,6,0,0,1,1.77-.86,6.08,6.08,0,0,1,1.83-.32,6.34,6.34,0,0,1,2.49.42,3.8,3.8,0,0,1,1.55,1.19,4.61,4.61,0,0,1,.79,1.83A12,12,0,0,1,66.66,13v7.13H63.09v-6.7A4.89,4.89,0,0,0,62.64,11a1.63,1.63,0,0,0-1.52-.72,3.07,3.07,0,0,0-.8.15,2.85,2.85,0,0,0-.86.36A4.77,4.77,0,0,1,59.68,12c0,.41,0,.84,0,1.31v6.89H56.15Z"/><path class="cls-5" d="M69.45,14A7.8,7.8,0,0,1,70,11a6.25,6.25,0,0,1,1.36-2.1,5.64,5.64,0,0,1,1.93-1.27,6,6,0,0,1,2.24-.43,5.57,5.57,0,0,1,4.25,1.64,6.79,6.79,0,0,1,1.56,4.84c0,.2,0,.43,0,.68s0,.47-.05.66H73.13a2.35,2.35,0,0,0,1,1.75,4.16,4.16,0,0,0,2.45.65,10.34,10.34,0,0,0,1.93-.18,7.75,7.75,0,0,0,1.55-.44l.48,2.9a5.29,5.29,0,0,1-.77.29c-.32.09-.68.18-1.07.25s-.81.13-1.26.18a12.16,12.16,0,0,1-1.34.07,8.1,8.1,0,0,1-3-.5,6,6,0,0,1-2.09-1.38,5.43,5.43,0,0,1-1.22-2.08A8.32,8.32,0,0,1,69.45,14Zm8.41-1.37a3.87,3.87,0,0,0-.16-.89,2.33,2.33,0,0,0-.41-.76,2.17,2.17,0,0,0-.7-.56,2.29,2.29,0,0,0-1-.21,2.49,2.49,0,0,0-1,.2,2.2,2.2,0,0,0-.72.54,2.5,2.5,0,0,0-.44.78,4.25,4.25,0,0,0-.23.9Z"/><path class="cls-5" d="M91.89,10.71l-1.13-.25a6.84,6.84,0,0,0-1.39-.13,6.57,6.57,0,0,0-.81.06,4.44,4.44,0,0,0-.7.13v9.65H84.28v-12a22.81,22.81,0,0,1,2.27-.63,13,13,0,0,1,2.91-.3l.7,0,.82.1.81.14a4.21,4.21,0,0,1,.7.21Z"/></svg>