<svg style='display: none;'>

	<!-- FACEBOOK -->
	<symbol id='facebook' viewBox='0 0 24 24'>
		<title>facebook</title>
		<path id='fb' d='M12.89,18.86V12.48H15L15.35,10H12.89V8.4c0-.72.2-1.21,1.23-1.21h1.32V5a17.56,17.56,0,0,0-1.92-.1,3,3,0,0,0-3.2,3.29V10H8.17v2.49h2.15v6.38Z'/>
	</symbol>

	<!-- VKONTAKTE -->
	<symbol id='vkontakte' viewBox='0 0 24 24'>
		<defs>
			<style>
				.cls-20 {
					fill-rule:evenodd; stroke: transparent
				}
				<!-- #vk {fill:currentColor}
			    .social__link:hover #use1 {color:#fff} -->
			</style>
		</defs>
		<title>vkontakte</title>
		<path id='vk' class='cls-20' d='M20.59,7.38c.12-.42,0-.72-.6-.72H18a.84.84,0,0,0-.85.55,16.87,16.87,0,0,1-2.42,4c-.46.46-.67.6-.92.6s-.31-.14-.31-.56V7.38c0-.5-.14-.72-.56-.72H9.86a.47.47,0,0,0-.5.45c0,.47.71.58.79,1.92v2.9c0,.63-.12.75-.37.75-.67,0-2.29-2.45-3.25-5.26-.19-.54-.38-.76-.89-.76h-2c-.57,0-.68.26-.68.55,0,.52.67,3.11,3.11,6.53a7.66,7.66,0,0,0,6,3.6c1.26,0,1.41-.28,1.41-.76V14.81c0-.56.12-.67.52-.67s.79.14,2,1.27c1.33,1.34,1.55,1.93,2.3,1.93h2c.57,0,.85-.28.68-.83a8.22,8.22,0,0,0-1.66-2.31c-.46-.54-1.14-1.13-1.35-1.42s-.21-.54,0-.87c0,0,2.4-3.38,2.65-4.53'/>
	</symbol>

	<!-- TWITTER -->
	<symbol id='twitter' viewBox='0 0 24 24'>
		<title>twitter</title>
		<path id='tw' d='M9.89,18a8.57,8.57,0,0,0,8.62-8.62c0-.13,0-.26,0-.39A6.26,6.26,0,0,0,20,7.42a6.51,6.51,0,0,1-1.74.48A3.08,3.08,0,0,0,19.6,6.22,6.22,6.22,0,0,1,17.68,7a3,3,0,0,0-5.17,2.76A8.58,8.58,0,0,1,6.27,6.55a3,3,0,0,0,.94,4.05,3.13,3.13,0,0,1-1.38-.38v0a3,3,0,0,0,2.43,3,3,3,0,0,1-1.37,0,3,3,0,0,0,2.84,2.1A6.07,6.07,0,0,1,6,16.68a5.79,5.79,0,0,1-.72,0A8.61,8.61,0,0,0,9.89,18'/>
	</symbol>

	<!-- GOOGLE -->
	<!-- <symbol id='google' viewBox="0 0 96.828 96.827">
		<title>google</title>
		<path d="M62.617,0H39.525c-10.29,0-17.413,2.256-23.824,7.552c-5.042,4.35-8.051,10.672-8.051,16.912
			c0,9.614,7.33,19.831,20.913,19.831c1.306,0,2.752-0.134,4.028-0.253l-0.188,0.457c-0.546,1.308-1.063,2.542-1.063,4.468
			c0,3.75,1.809,6.063,3.558,8.298l0.22,0.283l-0.391,0.027c-5.609,0.384-16.049,1.1-23.675,5.787
			c-9.007,5.355-9.707,13.145-9.707,15.404c0,8.988,8.376,18.06,27.09,18.06c21.76,0,33.146-12.005,33.146-23.863
			c0.002-8.771-5.141-13.101-10.6-17.698l-4.605-3.582c-1.423-1.179-3.195-2.646-3.195-5.364c0-2.672,1.772-4.436,3.336-5.992
			l0.163-0.165c4.973-3.917,10.609-8.358,10.609-17.964c0-9.658-6.035-14.649-8.937-17.048h7.663c0.094,0,0.188-0.026,0.266-0.077
			l6.601-4.15c0.188-0.119,0.276-0.348,0.214-0.562C63.037,0.147,62.839,0,62.617,0z M34.614,91.535
			c-13.264,0-22.176-6.195-22.176-15.416c0-6.021,3.645-10.396,10.824-12.997c5.749-1.935,13.17-2.031,13.244-2.031
			c1.257,0,1.889,0,2.893,0.126c9.281,6.605,13.743,10.073,13.743,16.678C53.141,86.309,46.041,91.535,34.614,91.535z
			 M34.489,40.756c-11.132,0-15.752-14.633-15.752-22.468c0-3.984,0.906-7.042,2.77-9.351c2.023-2.531,5.487-4.166,8.825-4.166
			c10.221,0,15.873,13.738,15.873,23.233c0,1.498,0,6.055-3.148,9.22C40.94,39.337,37.497,40.756,34.489,40.756z"/>
		<path d="M94.982,45.223H82.814V33.098c0-0.276-0.225-0.5-0.5-0.5H77.08c-0.276,0-0.5,0.224-0.5,0.5v12.125H64.473
			c-0.276,0-0.5,0.224-0.5,0.5v5.304c0,0.275,0.224,0.5,0.5,0.5H76.58V63.73c0,0.275,0.224,0.5,0.5,0.5h5.234
			c0.275,0,0.5-0.225,0.5-0.5V51.525h12.168c0.276,0,0.5-0.223,0.5-0.5v-5.302C95.482,45.446,95.259,45.223,94.982,45.223z"/>
	</symbol> -->
</svg>