<svg version="1.1" id="Layer_1" xmlns="http://www.w3.org/2000/svg" xmlns:xlink="http://www.w3.org/1999/xlink" x="0px" y="0px"
	 viewBox="0 0 106 34" style="enable-background:new 0 0 106 34;" xml:space="preserve">
<style type="text/css">
	.st0{clip-path:url(#SVGID_2_);fill:#5435D1;}
	.st1{clip-path:url(#SVGID_4_);fill:#121212;}
	.st2{clip-path:url(#SVGID_6_);fill:#121212;}
	.st3{clip-path:url(#SVGID_8_);fill:#121212;}
	.st4{clip-path:url(#SVGID_10_);fill:#121212;}
	.st5{clip-path:url(#SVGID_12_);fill:#121212;}
	.st6{clip-path:url(#SVGID_14_);fill:#121212;}
	.st7{clip-path:url(#SVGID_16_);fill:#121212;}
	.st8{fill:#EF5060;}
	.st9{fill:#FFFFFF;}
	.st10{fill:#171730;}
</style>
<g>
	<g>
		<g>
			<defs>
				<path id="SVGID_1_" d="M7.2,7.1c0,1-0.3,1.9-1,2.6c-0.7,0.6-1.5,1-2.5,0.9c-0.9,0-1.8-0.3-2.5-0.9C0.6,9,0.2,8.1,0.2,7.1
					c-0.1-1,0.3-1.9,1-2.6C2,3.9,2.8,3.6,3.7,3.6c0.9,0,1.8,0.3,2.5,0.9C6.9,5.2,7.3,6.2,7.2,7.1z"/>
			</defs>
			<clipPath id="SVGID_2_">
				<use xlink:href="#SVGID_1_"  style="overflow:visible;"/>
			</clipPath>
			<rect x="-4.7" y="-1.4" class="st0" width="17" height="17"/>
		</g>
	</g>
	<g>
		<g>
			<defs>
				<rect id="SVGID_3_" x="1.8" y="12.6" width="4" height="14"/>
			</defs>
			<clipPath id="SVGID_4_">
				<use xlink:href="#SVGID_3_"  style="overflow:visible;"/>
			</clipPath>
			<rect x="-3.2" y="7.6" class="st1" width="14" height="24"/>
		</g>
	</g>
	<g>
		<g>
			<defs>
				<path id="SVGID_5_" d="M10.8,12.5c0.9-0.2,1.7-0.4,2.6-0.6c1.1-0.2,2.2-0.3,3.3-0.3c1,0,2,0.1,2.9,0.5c0.7,0.3,1.4,0.7,1.9,1.4
					c0.5,0.6,0.8,1.4,1,2.1c0.2,0.9,0.3,1.8,0.3,2.7v8.3h-3.9v-7.8c0.1-1-0.1-2-0.5-2.8c-0.4-0.6-1.1-0.9-1.9-0.8
					c-0.3,0-0.6,0-0.9,0c-0.3,0-0.6,0.1-0.9,0.1v11.4h-3.9C10.8,26.6,10.8,12.5,10.8,12.5z"/>
			</defs>
			<clipPath id="SVGID_6_">
				<use xlink:href="#SVGID_5_"  style="overflow:visible;"/>
			</clipPath>
			<rect x="5.8" y="6.6" class="st2" width="22" height="25"/>
		</g>
	</g>
	<g>
		<g>
			<defs>
				<path id="SVGID_7_" d="M25.8,19.1c0-1,0.2-2,0.5-2.9c0.7-1.8,2.1-3.2,3.9-4c1-0.4,2.1-0.6,3.2-0.6c0.7,0,1.5,0.1,2.2,0.2
					c0.7,0.1,1.3,0.3,1.9,0.6l-0.9,3.2c-0.4-0.1-0.9-0.3-1.3-0.4c-0.5-0.1-1-0.2-1.6-0.2c-1.1-0.1-2.1,0.4-2.8,1.1
					c-0.6,0.8-1,1.9-0.9,2.9c-0.1,1.1,0.2,2.1,0.9,3c0.8,0.8,1.9,1.2,3,1.1c0.5,0,1.1,0,1.6-0.1c0.5-0.1,1.1-0.2,1.6-0.4l0.6,3.3
					c-0.6,0.2-1.2,0.4-1.8,0.5c-0.8,0.2-1.6,0.2-2.4,0.2c-1.2,0-2.4-0.2-3.5-0.6c-0.9-0.4-1.7-0.9-2.4-1.6c-0.6-0.7-1.1-1.5-1.4-2.4
					C25.9,21.1,25.7,20.1,25.8,19.1z"/>
			</defs>
			<clipPath id="SVGID_8_">
				<use xlink:href="#SVGID_7_"  style="overflow:visible;"/>
			</clipPath>
			<rect x="20.8" y="6.6" class="st3" width="22" height="25"/>
		</g>
	</g>
	<g>
		<g>
			<defs>
				<path id="SVGID_9_" d="M49.7,19.1c0.1-1-0.2-2-0.7-2.9c-0.5-0.7-1.3-1.2-2.1-1.1c-0.8,0-1.7,0.4-2.1,1.1
					c-0.5,0.9-0.8,1.9-0.8,2.9c0,1,0.2,2.1,0.8,3c0.5,0.7,1.3,1.1,2.1,1.1c0.8,0,1.7-0.4,2.1-1.1C49.5,21.2,49.7,20.2,49.7,19.1z
					 M53.8,19.1c0,1-0.2,2.1-0.5,3.1c-0.3,0.9-0.8,1.7-1.4,2.4c-0.6,0.7-1.4,1.2-2.2,1.5c-1.8,0.7-3.9,0.7-5.7,0
					c-0.8-0.3-1.6-0.9-2.2-1.5c-0.6-0.7-1.1-1.5-1.4-2.4c-0.3-1-0.5-2-0.5-3.1c0-1,0.2-2.1,0.5-3c0.3-0.9,0.9-1.7,1.5-2.4
					c0.6-0.7,1.4-1.2,2.2-1.5c1.8-0.7,3.8-0.7,5.6,0c0.8,0.4,1.5,0.9,2.2,1.5c0.6,0.7,1.1,1.5,1.4,2.4C53.6,17,53.8,18.1,53.8,19.1z
					"/>
			</defs>
			<clipPath id="SVGID_10_">
				<use xlink:href="#SVGID_9_"  style="overflow:visible;"/>
			</clipPath>
			<rect x="34.8" y="6.6" class="st4" width="24" height="25"/>
		</g>
	</g>
	<g>
		<g>
			<defs>
				<path id="SVGID_11_" d="M64.7,18.8c0.1-1-0.1-2-0.5-2.9c-0.4-0.6-1.1-0.9-1.8-0.8c-0.3,0-0.5,0-0.8,0l-0.8,0.1v11.3h-4.1v-14
					l1.2-0.3c0.5-0.1,1-0.2,1.5-0.3s1.1-0.1,1.6-0.2c0.6,0,1.2-0.1,1.6-0.1c0.9,0,1.7,0.1,2.6,0.4c0.6,0.2,1.1,0.5,1.6,1
					c0.6-0.4,1.3-0.8,2-1c0.7-0.2,1.4-0.4,2.1-0.4c1,0,1.9,0.1,2.9,0.5c0.7,0.3,1.3,0.8,1.8,1.4c0.4,0.6,0.8,1.4,0.9,2.1
					c0.2,0.9,0.2,1.8,0.2,2.6v8.3h-4.1v-7.8c0.1-1-0.1-1.9-0.5-2.8c-0.4-0.6-1.1-0.9-1.7-0.8c-0.3,0-0.6,0.1-0.9,0.2
					c-0.3,0.1-0.7,0.2-1,0.4c0.1,0.5,0.2,0.9,0.3,1.4c0,0.5,0,1,0,1.5v8h-4.1L64.7,18.8L64.7,18.8z"/>
			</defs>
			<clipPath id="SVGID_12_">
				<use xlink:href="#SVGID_11_"  style="overflow:visible;"/>
			</clipPath>
			<rect x="51.8" y="6.6" class="st5" width="30" height="25"/>
		</g>
	</g>
	<g>
		<g>
			<defs>
				<path id="SVGID_13_" d="M89.6,17.8c0-0.3-0.1-0.7-0.2-1c-0.1-0.3-0.3-0.6-0.5-0.9c-0.2-0.3-0.5-0.5-0.8-0.6
					C87.8,15.1,87.4,15,87,15c-0.4,0-0.8,0.1-1.2,0.2c-0.3,0.1-0.6,0.4-0.8,0.6c-0.2,0.3-0.4,0.6-0.5,0.9c-0.1,0.3-0.2,0.7-0.3,1
					L89.6,17.8L89.6,17.8z M79.8,19.3c0-1.2,0.2-2.3,0.7-3.4c0.4-0.9,0.9-1.7,1.6-2.4c0.7-0.6,1.4-1.1,2.3-1.4
					c0.8-0.3,1.7-0.5,2.6-0.5c1.9-0.1,3.7,0.6,5,1.9c1.3,1.5,2,3.5,1.8,5.5c0,0.2,0,0.5,0,0.8c0,0.3,0,0.5-0.1,0.7h-9.6
					c0.1,0.8,0.5,1.5,1.2,2c0.9,0.5,1.9,0.8,2.9,0.7c0.8,0,1.5-0.1,2.3-0.2c0.6-0.1,1.2-0.3,1.8-0.5l0.6,3.3
					c-0.3,0.1-0.6,0.2-0.9,0.3c-0.4,0.1-0.8,0.2-1.3,0.3c-0.5,0.1-0.9,0.2-1.5,0.2c-0.5,0-1.1,0.1-1.6,0.1c-1.2,0-2.4-0.2-3.5-0.6
					c-0.9-0.4-1.8-0.9-2.5-1.6c-0.7-0.7-1.2-1.5-1.4-2.4C79.9,21.2,79.7,20.3,79.8,19.3z"/>
			</defs>
			<clipPath id="SVGID_14_">
				<use xlink:href="#SVGID_13_"  style="overflow:visible;"/>
			</clipPath>
			<rect x="74.8" y="6.6" class="st6" width="24" height="25"/>
		</g>
	</g>
	<g>
		<g>
			<defs>
				<path id="SVGID_15_" d="M105.1,15.7l-1.2-0.3c-0.5-0.1-1-0.2-1.5-0.1c-0.3,0-0.6,0-0.9,0.1c-0.3,0-0.5,0.1-0.8,0.1v11.2h-3.9
					V12.7c0.8-0.3,1.7-0.5,2.5-0.7c1.1-0.2,2.1-0.4,3.2-0.4h0.8l0.9,0.1l0.9,0.2c0.3,0.1,0.5,0.1,0.8,0.2L105.1,15.7z"/>
			</defs>
			<clipPath id="SVGID_16_">
				<use xlink:href="#SVGID_15_"  style="overflow:visible;"/>
			</clipPath>
			<rect x="91.8" y="6.6" class="st7" width="19" height="25"/>
		</g>
	</g>
</g>
<path class="st8" d="M13,8.8c0,0,4.9-9.8,12.6-6.1c3,1.4,3.1,5.1,3.1,5.1s-3.2-1.5-4.2-0.9c1.6,5.2-1,6.5-1,6.5S19.9,10,13,8.8z"/>
<g>
	<path class="st9" d="M9.9,11.2c0.2,0.8,0.9,1.3,1.7,1.3c2.3,0.1,7.3,0.4,11.1,4.9c1.1,1.4,3.2-1.3,1.8-3.1
		c-1.3-1.6-8.8-5.5-11.5-5.5C10.8,8.8,9.6,9.9,9.9,11.2z"/>
	<path class="st10" d="M23.4,18.3c-0.4,0-0.8-0.2-1.1-0.5c-3.7-4.3-8.4-4.6-10.7-4.7c-1-0.1-1.9-0.7-2.2-1.7c-0.2-0.6,0-1.3,0.4-1.8
		c0.6-0.8,1.7-1.2,3.2-1.2c0,0,0,0,0,0c2.9,0,10.6,4,11.9,5.7c1,1.3,0.6,3-0.4,3.9C24.1,18.1,23.8,18.3,23.4,18.3z M13,9.3
		C13,9.3,13,9.3,13,9.3c-1.1,0-2,0.3-2.4,0.8c-0.2,0.3-0.3,0.6-0.2,0.9v0c0.1,0.5,0.6,0.9,1.3,0.9c2.4,0.1,7.5,0.4,11.4,5.1
		c0.1,0.1,0.3,0.4,0.8,0c0.6-0.5,1-1.6,0.3-2.5C23,13.2,15.6,9.3,13,9.3z"/>
</g>
<path class="st10" d="M23.9,14.1c-0.1,0-0.2,0-0.3-0.1c-0.2-0.2-0.3-0.5-0.1-0.7l0,0c0,0,1.9-2.7,0.4-7.6c-0.1-0.3,0.1-0.5,0.3-0.6
	c0.3-0.1,0.5,0.1,0.6,0.3c1.7,5.4-0.5,8.4-0.6,8.5C24.2,14.1,24.1,14.1,23.9,14.1z"/>
<path class="st10" d="M13,9.3c-0.1,0-0.2,0-0.2-0.1c-0.2-0.1-0.3-0.4-0.2-0.7c0.1-0.1,5.6-9.9,13.6-6.1c3.2,1.5,3.4,5.4,3.4,5.6
	c0,0.2-0.1,0.3-0.2,0.4c-0.1,0.1-0.3,0.1-0.5,0c-1.4-0.7-3.2-1.2-3.7-0.9c-0.2,0.1-0.5,0.1-0.7-0.2c-0.1-0.2-0.1-0.5,0.2-0.7
	c0.9-0.5,2.7,0.1,3.8,0.5c-0.2-1.1-0.9-3-2.7-3.9C18.5-0.1,13.5,8.9,13.4,9C13.3,9.2,13.2,9.3,13,9.3z"/>
<g>
	<circle class="st9" cx="29.1" cy="8" r="2"/>
	<path class="st10" d="M29.1,10.5c-1.4,0-2.5-1.1-2.5-2.5s1.1-2.5,2.5-2.5s2.5,1.1,2.5,2.5S30.5,10.5,29.1,10.5z M29.1,6.5
		c-0.8,0-1.5,0.7-1.5,1.5s0.7,1.5,1.5,1.5s1.5-0.7,1.5-1.5S29.9,6.5,29.1,6.5z"/>
</g>
</svg>
