<?xml version="1.0" standalone="no"?>
<!DOCTYPE svg PUBLIC "-//W3C//DTD SVG 20010904//EN"
 "http://www.w3.org/TR/2001/REC-SVG-20010904/DTD/svg10.dtd">
<svg version="1.0" xmlns="http://www.w3.org/2000/svg"
 width="700.000000pt" height="700.000000pt" viewBox="0 0 700.000000 700.000000"
 preserveAspectRatio="xMidYMid meet">
<metadata>
Created by potrace 1.11, written by Peter Selinger 2001-2013
</metadata>
<g transform="translate(0.000000,700.000000) scale(0.100000,-0.100000)"
fill="#000000" stroke="none">
<path d="M1177 5564 c-2 -2 -22 -5 -43 -5 -21 -1 -64 -8 -94 -16 -182 -51
-322 -189 -361 -359 -15 -67 -12 -217 7 -280 45 -156 173 -280 345 -333 131
-41 331 -14 444 61 154 101 227 249 220 445 -4 100 -5 108 -35 183 -63 160
-225 278 -405 296 -27 3 -55 7 -62 9 -6 2 -13 2 -16 -1z"/>
<path d="M5465 4514 c-334 -43 -617 -220 -787 -494 -76 -122 -140 -295 -164
-445 -14 -81 -11 -422 4 -495 32 -158 58 -241 104 -335 131 -268 367 -446 688
-521 106 -24 165 -29 365 -28 246 0 386 21 566 86 l56 20 -9 46 c-5 26 -11 61
-13 77 -3 17 -10 53 -15 80 -5 28 -12 67 -16 89 -3 21 -7 46 -9 55 -1 9 -9 49
-16 89 -7 39 -16 72 -20 72 -4 0 -25 -7 -48 -14 -123 -44 -237 -62 -446 -70
-216 -8 -394 82 -478 241 -63 120 -81 206 -82 378 0 172 12 231 74 362 70 146
206 248 361 272 131 19 331 -3 476 -54 l65 -23 9 22 c8 17 53 188 65 246 2 8
15 60 30 115 15 55 27 104 28 109 3 12 -100 52 -208 80 -181 48 -402 63 -580
40z"/>
<path d="M2977 4514 c-1 -1 -51 -4 -112 -8 -60 -3 -128 -8 -150 -11 -22 -2
-61 -6 -86 -9 -126 -13 -482 -86 -497 -101 -9 -8 -9 -2116 -1 -2121 9 -5 610
-6 616 -1 3 3 6 389 6 858 l2 852 25 5 c14 3 102 5 195 6 157 1 174 -1 219
-22 86 -39 129 -82 159 -159 56 -145 56 -141 57 -867 0 -379 4 -672 9 -676 5
-3 146 -5 313 -5 l303 0 0 690 c0 380 -3 719 -8 755 -6 60 -9 76 -21 137 -46
228 -153 411 -299 511 -151 104 -357 160 -607 165 -67 1 -122 2 -123 1z"/>
<path d="M870 3351 l0 -1101 315 0 315 0 -1 1100 c0 929 -2 1100 -14 1100 -8
0 -16 -4 -19 -8 -7 -12 -117 -40 -191 -50 -130 -17 -248 0 -387 53 -17 7 -18
-49 -18 -1094z"/>
</g>
</svg>
