<svg id="Layer_1" data-name="Layer 1" xmlns="http://www.w3.org/2000/svg" viewBox="0 0 24 24"><title>twitter</title><path id="Twitter" d="M9.89,18a8.57,8.57,0,0,0,8.62-8.62c0-.13,0-.26,0-.39A6.26,6.26,0,0,0,20,7.42a6.51,6.51,0,0,1-1.74.48A3.08,3.08,0,0,0,19.6,6.22,6.22,6.22,0,0,1,17.68,7a3,3,0,0,0-5.17,2.76A8.58,8.58,0,0,1,6.27,6.55a3,3,0,0,0,.94,4.05,3.13,3.13,0,0,1-1.38-.38v0a3,3,0,0,0,2.43,3,3,3,0,0,1-1.37,0,3,3,0,0,0,2.84,2.1A6.07,6.07,0,0,1,6,16.68a5.79,5.79,0,0,1-.72,0A8.61,8.61,0,0,0,9.89,18"/></svg>